<svg width="1910" height="274" viewBox="0 0 1910 274" fill="none" xmlns="http://www.w3.org/2000/svg">
<path d="M0.625 12.625H40.25V63.625H161.75V12.625H201.5V208H161.75V97.5H40.25V208H0.625V12.625ZM245.375 161.5C245.375 154.417 246.917 147.958 250 142.125C253.083 136.292 257.708 131.292 263.875 127.125C270.042 122.875 277.708 119.625 286.875 117.375C296.125 115.042 306.875 113.875 319.125 113.875C328.208 113.875 337.75 114.542 347.75 115.875C357.833 117.208 368.208 119.25 378.875 122C378.458 117.333 377.042 113.042 374.625 109.125C372.208 105.125 368.833 101.708 364.5 98.875C360.25 95.9583 355.083 93.7083 349 92.125C343 90.5417 336.167 89.75 328.5 89.75C324.333 89.75 319.75 90 314.75 90.5C309.75 91 304.583 91.75 299.25 92.75C293.917 93.75 288.625 95 283.375 96.5C278.208 98 273.375 99.7917 268.875 101.875L257.625 71.5C263.208 69.5 269.167 67.6667 275.5 66C281.917 64.3333 288.458 62.9167 295.125 61.75C301.792 60.5 308.458 59.5417 315.125 58.875C321.792 58.2083 328.25 57.875 334.5 57.875C362.083 57.875 382.583 64.9167 396 79C409.417 93.0833 416.125 114.667 416.125 143.75V208H379.125V194.125C375.292 196.375 371.083 198.5 366.5 200.5C362 202.5 357.083 204.25 351.75 205.75C346.417 207.25 340.667 208.417 334.5 209.25C328.417 210.167 321.958 210.625 315.125 210.625C303.625 210.625 293.5 209.375 284.75 206.875C276.083 204.375 268.833 200.917 263 196.5C257.167 192.083 252.75 186.917 249.75 181C246.833 175 245.375 168.5 245.375 161.5ZM284.375 160.25C284.375 162.667 285 165 286.25 167.25C287.5 169.417 289.5 171.375 292.25 173.125C295 174.792 298.5 176.167 302.75 177.25C307.083 178.25 312.292 178.75 318.375 178.75C324.875 178.75 331.167 178.167 337.25 177C343.333 175.833 349 174.292 354.25 172.375C359.5 170.458 364.25 168.25 368.5 165.75C372.75 163.25 376.292 160.667 379.125 158V151.5C373.458 149.917 367.833 148.583 362.25 147.5C356.75 146.417 351.458 145.583 346.375 145C341.375 144.333 336.625 143.875 332.125 143.625C327.708 143.375 323.833 143.25 320.5 143.25C313.583 143.25 307.833 143.708 303.25 144.625C298.667 145.542 294.958 146.792 292.125 148.375C289.292 149.875 287.292 151.667 286.125 153.75C284.958 155.833 284.375 158 284.375 160.25ZM466.125 0.625H503.125V208H466.125V0.625ZM551.625 0.625H588.625V208H551.625V0.625ZM653.75 226.5C657.583 229 661.75 231.208 666.25 233.125C670.75 235.042 675.417 236.625 680.25 237.875C685.167 239.125 690.167 240.042 695.25 240.625C700.333 241.292 705.375 241.625 710.375 241.625C727.375 241.625 740.458 237.958 749.625 230.625C758.875 223.375 763.5 212.458 763.5 197.875V192.875C760.25 195.125 756.583 197.208 752.5 199.125C748.5 200.958 744.167 202.542 739.5 203.875C734.917 205.208 730.042 206.25 724.875 207C719.792 207.667 714.625 208 709.375 208C698.125 208 688.042 206.375 679.125 203.125C670.292 199.792 662.792 194.958 656.625 188.625C650.542 182.208 645.875 174.333 642.625 165C639.375 155.667 637.75 145 637.75 133V60.5H674.625V122.75C674.625 140.583 678 153.75 684.75 162.25C691.583 170.667 702.333 174.875 717 174.875C727.333 174.875 736.458 173.083 744.375 169.5C752.375 165.833 758.75 161.167 763.5 155.5V60.5H800.5V191.125C800.5 205.208 798.5 217.417 794.5 227.75C790.5 238.167 784.667 246.792 777 253.625C769.417 260.458 760.083 265.542 749 268.875C737.917 272.292 725.333 274 711.25 274C697.5 274 684.667 272.542 672.75 269.625C660.833 266.708 649.917 262.75 640 257.75L653.75 226.5ZM848.375 60.375H885.25V132.375C885.25 139.208 886 145.458 887.5 151.125C889 156.708 891.542 161.5 895.125 165.5C898.792 169.5 903.625 172.625 909.625 174.875C915.708 177.042 923.25 178.125 932.25 178.125C936.5 178.125 940.792 177.667 945.125 176.75C949.542 175.833 953.75 174.583 957.75 173C961.75 171.333 965.458 169.375 968.875 167.125C972.375 164.875 975.375 162.417 977.875 159.75V60.375H1014.88V208H977.875V195.375C968.792 200.792 959.667 204.667 950.5 207C941.333 209.333 932.625 210.5 924.375 210.5C910.875 210.5 899.292 208.875 889.625 205.625C880.042 202.375 872.167 197.667 866 191.5C859.917 185.25 855.458 177.625 852.625 168.625C849.792 159.542 848.375 149.208 848.375 137.625V60.375ZM1160.62 149.875C1167.71 153.875 1174.88 157.5 1182.12 160.75C1189.46 163.917 1197.04 166.625 1204.88 168.875C1212.71 171.042 1220.92 172.708 1229.5 173.875C1238.17 175.042 1247.38 175.625 1257.12 175.625C1268.88 175.625 1278.88 174.875 1287.12 173.375C1295.38 171.792 1302.08 169.667 1307.25 167C1312.5 164.25 1316.29 161 1318.62 157.25C1321.04 153.5 1322.25 149.417 1322.25 145C1322.25 137.917 1319.29 132.333 1313.38 128.25C1307.46 124.083 1298.33 122 1286 122C1280.58 122 1274.88 122.375 1268.88 123.125C1262.88 123.792 1256.79 124.542 1250.62 125.375C1244.54 126.208 1238.5 127 1232.5 127.75C1226.58 128.417 1221 128.75 1215.75 128.75C1207 128.75 1198.58 127.625 1190.5 125.375C1182.5 123.125 1175.38 119.75 1169.12 115.25C1162.96 110.75 1158.04 105.125 1154.38 98.375C1150.71 91.625 1148.88 83.75 1148.88 74.75C1148.88 69.4167 1149.58 64.125 1151 58.875C1152.5 53.625 1154.83 48.625 1158 43.875C1161.25 39.0417 1165.42 34.5833 1170.5 30.5C1175.58 26.3333 1181.71 22.75 1188.88 19.75C1196.12 16.75 1204.46 14.4167 1213.88 12.75C1223.38 11 1234.17 10.125 1246.25 10.125C1255 10.125 1263.79 10.625 1272.62 11.625C1281.46 12.5417 1290.04 13.875 1298.38 15.625C1306.79 17.375 1314.88 19.5 1322.62 22C1330.38 24.4167 1337.58 27.125 1344.25 30.125L1326.88 62.125C1321.38 59.7083 1315.46 57.5 1309.12 55.5C1302.79 53.4167 1296.17 51.625 1289.25 50.125C1282.33 48.625 1275.17 47.4583 1267.75 46.625C1260.42 45.7083 1252.92 45.25 1245.25 45.25C1234.33 45.25 1225.33 46.0417 1218.25 47.625C1211.25 49.2083 1205.67 51.25 1201.5 53.75C1197.33 56.1667 1194.42 58.9167 1192.75 62C1191.17 65 1190.38 68 1190.38 71C1190.38 76.8333 1193 81.625 1198.25 85.375C1203.5 89.0417 1211.5 90.875 1222.25 90.875C1226.58 90.875 1231.54 90.5833 1237.12 90C1242.79 89.3333 1248.71 88.625 1254.88 87.875C1261.12 87.125 1267.46 86.4583 1273.88 85.875C1280.38 85.2083 1286.67 84.875 1292.75 84.875C1304.25 84.875 1314.42 86.1667 1323.25 88.75C1332.17 91.3333 1339.62 95.0417 1345.62 99.875C1351.62 104.625 1356.17 110.417 1359.25 117.25C1362.33 124 1363.88 131.583 1363.88 140C1363.88 151.25 1361.25 161.292 1356 170.125C1350.83 178.875 1343.42 186.292 1333.75 192.375C1324.17 198.375 1312.58 202.958 1299 206.125C1285.42 209.208 1270.29 210.75 1253.62 210.75C1242.62 210.75 1231.88 210.042 1221.38 208.625C1210.88 207.292 1200.79 205.375 1191.12 202.875C1181.54 200.292 1172.38 197.25 1163.62 193.75C1154.96 190.167 1146.92 186.25 1139.5 182L1160.62 149.875ZM1402.88 60.375H1439.75V132.375C1439.75 139.208 1440.5 145.458 1442 151.125C1443.5 156.708 1446.04 161.5 1449.62 165.5C1453.29 169.5 1458.12 172.625 1464.12 174.875C1470.21 177.042 1477.75 178.125 1486.75 178.125C1491 178.125 1495.29 177.667 1499.62 176.75C1504.04 175.833 1508.25 174.583 1512.25 173C1516.25 171.333 1519.96 169.375 1523.38 167.125C1526.88 164.875 1529.88 162.417 1532.38 159.75V60.375H1569.38V208H1532.38V195.375C1523.29 200.792 1514.17 204.667 1505 207C1495.83 209.333 1487.12 210.5 1478.88 210.5C1465.38 210.5 1453.79 208.875 1444.12 205.625C1434.54 202.375 1426.67 197.667 1420.5 191.5C1414.42 185.25 1409.96 177.625 1407.12 168.625C1404.29 159.542 1402.88 149.208 1402.88 137.625V60.375ZM1617.38 60.5H1654.38V73C1663.62 67.3333 1672.62 63.4167 1681.38 61.25C1690.21 59 1698.83 57.875 1707.25 57.875C1719 57.875 1729.79 59.75 1739.62 63.5C1749.46 67.25 1757.88 72.9167 1764.88 80.5C1770.29 76.3333 1775.62 72.8333 1780.88 70C1786.12 67.0833 1791.38 64.75 1796.62 63C1801.88 61.1667 1807.21 59.875 1812.62 59.125C1818.04 58.2917 1823.62 57.875 1829.38 57.875C1841.46 57.875 1852.42 59.5417 1862.25 62.875C1872.08 66.125 1880.46 71 1887.38 77.5C1894.38 84 1899.75 92.125 1903.5 101.875C1907.33 111.542 1909.25 122.75 1909.25 135.5V208H1872.38V141.5C1872.38 133.417 1871.21 126.208 1868.88 119.875C1866.62 113.458 1863.42 108.083 1859.25 103.75C1855.17 99.3333 1850.25 96 1844.5 93.75C1838.83 91.4167 1832.58 90.25 1825.75 90.25C1822 90.25 1818.17 90.625 1814.25 91.375C1810.33 92.0417 1806.5 93.125 1802.75 94.625C1799.08 96.125 1795.62 98.0417 1792.38 100.375C1789.12 102.625 1786.29 105.292 1783.88 108.375V208H1747V141.5C1747 133.417 1745.83 126.208 1743.5 119.875C1741.25 113.458 1738.04 108.083 1733.88 103.75C1729.79 99.3333 1724.83 96 1719 93.75C1713.25 91.4167 1706.92 90.25 1700 90.25C1695.75 90.25 1691.46 90.7083 1687.12 91.625C1682.88 92.4583 1678.75 93.6667 1674.75 95.25C1670.83 96.8333 1667.12 98.75 1663.62 101C1660.21 103.25 1657.12 105.792 1654.38 108.625V208H1617.38V60.5Z" fill="white"/>
</svg>
