<svg width="1205" height="280" viewBox="0 0 1205 280" fill="none" xmlns="http://www.w3.org/2000/svg">
<g filter="url(#filter0_d_11_3)">
<path d="M34.048 204H12.8V24.8H34.048V107.232H117.248V24.8H138.496V204H117.248V109.792H34.048V204Z" fill="black"/>
<path d="M267.218 204C255.613 204 247.677 201.781 243.41 197.344C239.485 193.589 237.522 190.347 237.522 187.616V182.24C229.159 197.429 215.762 205.024 197.33 205.024C175.826 205.024 163.623 195.296 160.722 175.84C160.381 173.792 160.21 171.744 160.21 169.696C160.21 167.477 160.551 165.088 161.234 162.528C161.917 159.968 163.879 157.152 167.122 154.08C173.607 147.936 187.858 144.181 209.874 142.816C215.335 142.304 220.37 142.048 224.978 142.048C229.586 142.048 233.767 142.219 237.522 142.56V100.064C237.181 99.8933 237.181 99.1253 237.522 97.76C237.863 96.224 237.522 94.3466 236.498 92.128C235.645 89.7386 234.45 87.4346 232.914 85.216C231.378 82.9973 228.647 81.12 224.722 79.584C220.797 77.8773 215.677 77.024 209.362 77.024C203.047 77.024 195.623 78.2186 187.09 80.608C178.727 82.8266 172.583 85.0453 168.658 87.264L167.634 85.472C182.823 78.4746 198.269 74.976 213.97 74.976C231.549 74.976 243.154 78.1333 248.786 84.448C253.223 89.3973 255.442 94.6026 255.442 100.064V185.824C255.442 190.773 256.381 194.613 258.258 197.344C260.306 199.904 262.354 201.269 264.402 201.44L267.218 201.952H275.154V204H267.218ZM201.426 202.976C210.471 202.976 218.578 199.904 225.746 193.76C233.085 187.445 237.01 181.387 237.522 175.584V144.608C232.914 144.267 228.221 144.096 223.442 144.096C218.834 144.096 214.226 144.352 209.618 144.864C196.647 146.4 188.199 149.301 184.274 153.568C180.349 157.835 178.386 163.723 178.386 171.232C178.386 172.597 178.471 174.133 178.642 175.84C180.178 193.931 187.773 202.976 201.426 202.976Z" fill="black"/>
<path d="M326.752 204C311.733 204 302.261 200.075 298.336 192.224C297.483 190.517 297.056 188.981 297.056 187.616V12.256H314.976V185.824C314.976 190.773 315.915 194.613 317.792 197.344C319.84 199.904 321.888 201.269 323.936 201.44L326.752 201.952H334.688V204H326.752Z" fill="black"/>
<path d="M386.502 204C371.483 204 362.011 200.075 358.086 192.224C357.233 190.517 356.806 188.981 356.806 187.616V12.256H374.726V185.824C374.726 190.773 375.665 194.613 377.542 197.344C379.59 199.904 381.638 201.269 383.686 201.44L386.502 201.952H394.438V204H386.502Z" fill="black"/>
<path d="M429.978 249.824C424.517 261.941 417.775 268 409.754 268C406.17 268 401.989 267.403 397.21 266.208V264.16C401.135 265.184 404.634 265.696 407.706 265.696C416.41 265.696 423.066 260.405 427.674 249.824L449.178 204H448.922L401.306 76H419.226L458.906 182.752L498.074 101.6C500.122 98.016 501.146 93.7493 501.146 88.8C501.146 83.8506 499.781 80.096 497.05 77.536L498.586 76C499.269 76.3413 500.122 77.3653 501.146 79.072C502.341 80.7786 503.023 82.3146 503.194 83.68C503.535 85.0453 503.706 86.3253 503.706 87.52C503.706 92.128 502.682 96.8213 500.634 101.6L451.482 204L429.978 249.824Z" fill="black"/>
<path d="M540.91 174.56C540.91 188.043 544.494 196.661 551.662 200.416C555.075 202.123 559.427 202.976 564.718 202.976C575.47 202.976 585.027 198.88 593.39 190.688C601.923 182.496 606.531 174.901 607.214 167.904V76H625.134V185.824C625.134 190.773 626.073 194.613 627.95 197.344C629.998 199.904 632.046 201.269 634.094 201.44L636.91 201.952H644.846V204H629.23C622.233 204 616.857 202.464 613.102 199.392C609.518 196.32 607.641 193.248 607.47 190.176L607.214 185.824V174.816C604.142 182.155 598.681 189.067 590.83 195.552C582.979 201.867 574.361 205.024 564.974 205.024C555.758 205.024 548.163 204.171 542.19 202.464C536.387 200.587 532.206 198.027 529.646 194.784C525.209 189.493 522.99 182.667 522.99 174.304V76H540.91V174.56Z" fill="black"/>
<path d="M836.384 35.552C820.853 29.5786 806.176 26.592 792.352 26.592C778.699 26.592 768.032 29.4933 760.352 35.296C752.672 41.0986 748.832 49.12 748.832 59.36C748.832 71.8186 755.317 81.4613 768.288 88.288C774.091 91.1893 780.405 93.92 787.232 96.48C794.229 98.8693 801.227 101.6 808.224 104.672C815.221 107.744 821.621 111.243 827.424 115.168C833.227 119.093 837.92 124.555 841.504 131.552C845.088 138.379 846.88 147.168 846.88 157.92C846.88 168.501 843.893 177.547 837.92 185.056C831.947 192.565 824.693 197.685 816.16 200.416C807.797 202.976 797.984 204.256 786.72 204.256C765.728 204.256 747.808 199.051 732.96 188.64L734.24 186.592C739.872 191.029 747.125 194.699 756 197.6C765.045 200.331 774.261 201.696 783.648 201.696C797.472 201.696 809.248 198.539 818.976 192.224C828.875 185.739 833.824 176.267 833.824 163.808C833.824 150.155 827.339 139.488 814.368 131.808C808.565 128.395 802.165 125.237 795.168 122.336C788.341 119.435 781.429 116.448 774.432 113.376C767.435 110.133 761.035 106.549 755.232 102.624C742.261 94.0906 735.776 81.9733 735.776 66.272C735.776 53.8133 739.957 43.744 748.32 36.064C756.683 28.2133 769.227 24.288 785.952 24.288C802.848 24.288 820 27.1893 837.408 32.992L836.384 35.552Z" fill="black"/>
<path d="M883.91 174.56C883.91 188.043 887.494 196.661 894.662 200.416C898.075 202.123 902.427 202.976 907.718 202.976C918.47 202.976 928.027 198.88 936.39 190.688C944.923 182.496 949.531 174.901 950.214 167.904V76H968.134V185.824C968.134 190.773 969.073 194.613 970.95 197.344C972.998 199.904 975.046 201.269 977.094 201.44L979.91 201.952H987.846V204H972.23C965.233 204 959.857 202.464 956.102 199.392C952.518 196.32 950.641 193.248 950.47 190.176L950.214 185.824V174.816C947.142 182.155 941.681 189.067 933.83 195.552C925.979 201.867 917.361 205.024 907.974 205.024C898.758 205.024 891.163 204.171 885.19 202.464C879.387 200.587 875.206 198.027 872.646 194.784C868.209 189.493 865.99 182.667 865.99 174.304V76H883.91V174.56Z" fill="black"/>
<path d="M1155.11 105.44C1155.11 95.0293 1153.74 87.6906 1151.01 83.424C1148.28 79.1573 1143.08 77.024 1135.4 77.024C1125.16 77.024 1116.03 81.2906 1108 89.824C1100.15 98.3573 1096.23 106.037 1096.23 112.864V204H1078.31V105.44C1078.31 95.0293 1076.94 87.6906 1074.21 83.424C1071.48 79.1573 1065.68 77.024 1056.8 77.024C1047.93 77.024 1039.48 81.12 1031.46 89.312C1023.61 97.504 1019.34 105.099 1018.66 112.096V204H1000.74V76H1018.66V104.928C1021.39 97.5893 1026.43 90.7626 1033.76 84.448C1041.1 78.1333 1049.29 74.976 1058.34 74.976C1067.39 74.976 1074.55 75.8293 1079.84 77.536C1085.31 79.072 1089.15 81.5466 1091.36 84.96C1093.58 88.3733 1094.95 91.36 1095.46 93.92C1095.97 96.48 1096.23 100.064 1096.23 104.672C1098.96 97.3333 1103.91 90.592 1111.08 84.448C1118.24 78.1333 1125.92 74.976 1134.12 74.976C1142.31 74.976 1148.88 75.6586 1153.83 77.024C1158.78 78.3893 1162.45 79.9253 1164.84 81.632C1167.4 83.3386 1169.27 85.8133 1170.47 89.056C1171.83 92.2986 1172.6 94.944 1172.77 96.992C1172.94 99.04 1173.03 101.941 1173.03 105.696V185.824C1173.03 190.773 1173.97 194.613 1175.84 197.344C1177.89 199.904 1179.94 201.269 1181.99 201.44L1184.8 201.952H1192.74V204H1177.12C1170.13 204 1164.75 202.464 1161 199.392C1157.41 196.32 1155.53 193.248 1155.36 190.176L1155.11 185.824V105.44Z" fill="black"/>
</g>
<defs>
<filter id="filter0_d_11_3" x="0.800049" y="0.255981" width="1203.94" height="279.744" filterUnits="userSpaceOnUse" color-interpolation-filters="sRGB">
<feFlood flood-opacity="0" result="BackgroundImageFix"/>
<feColorMatrix in="SourceAlpha" type="matrix" values="0 0 0 0 0 0 0 0 0 0 0 0 0 0 0 0 0 0 127 0" result="hardAlpha"/>
<feOffset/>
<feGaussianBlur stdDeviation="6"/>
<feComposite in2="hardAlpha" operator="out"/>
<feColorMatrix type="matrix" values="0 0 0 0 1 0 0 0 0 1 0 0 0 0 1 0 0 0 1 0"/>
<feBlend mode="normal" in2="BackgroundImageFix" result="effect1_dropShadow_11_3"/>
<feBlend mode="normal" in="SourceGraphic" in2="effect1_dropShadow_11_3" result="shape"/>
</filter>
</defs>
</svg>
