<svg width="2087" height="581" viewBox="0 0 2087 581" fill="none" xmlns="http://www.w3.org/2000/svg">
<path d="M347.888 430.456L314.608 419.704C314.267 415.949 314.096 412.195 314.096 408.44C314.096 404.344 314.096 400.419 314.096 396.664C314.096 383.352 314.608 370.04 315.632 356.728C316.656 343.416 318.021 329.933 319.728 316.28C307.099 313.549 294.811 310.307 282.864 306.552C270.917 302.797 259.995 299.043 250.096 295.288C241.563 317.475 232.859 338.467 223.984 358.264C215.109 378.061 206.917 396.493 199.408 413.56C196.336 414.925 192.752 415.608 188.656 415.608C185.243 415.608 182 414.413 178.928 412.024C176.197 409.976 173.808 405.88 171.76 399.736C180.293 382.669 188.827 364.408 197.36 344.952C206.235 325.496 214.597 305.528 222.448 285.048C221.083 284.365 219.888 283.853 218.864 283.512C217.84 283.171 216.816 282.829 215.792 282.488C215.109 282.488 214.597 282.488 214.256 282.488C214.256 282.147 213.915 281.976 213.232 281.976C208.112 301.432 198.896 319.352 185.584 335.736C172.613 352.12 157.595 365.261 140.528 375.16C123.803 384.717 107.248 389.496 90.864 389.496C78.2347 389.496 66.4587 386.083 55.536 379.256C44.6133 372.088 34.8853 362.701 26.352 351.096C18.16 339.491 11.6747 326.691 6.89599 312.696C2.45866 298.701 0.23999 284.707 0.23999 270.712C0.23999 263.885 0.581324 256.717 1.26399 249.208C1.94666 241.699 2.97066 234.189 4.33599 226.68C7.74932 207.565 15.2587 185.72 26.864 161.144C38.8107 136.227 52.976 112.504 69.36 89.976C81.3067 73.592 94.96 58.9146 110.32 45.9439C125.68 32.9733 141.723 22.7333 158.448 15.2239C175.173 7.71462 191.387 3.95996 207.088 3.95996C225.52 3.95996 240.88 9.07996 253.168 19.3199C265.456 29.2186 274.672 42.5306 280.816 59.256C287.301 75.9813 290.544 94.584 290.544 115.064C290.544 128.717 289.349 143.224 286.96 158.584C284.912 173.944 281.84 190.157 277.744 207.224C274.672 220.195 271.088 232.995 266.992 245.624C263.237 257.912 259.141 270.029 254.704 281.976C265.968 285.048 276.891 288.12 287.472 291.192C298.395 293.923 310 296.141 322.288 297.848C328.091 258.253 335.771 220.195 345.328 183.672C355.227 146.808 363.931 112.333 371.44 80.248L401.136 118.648C395.675 132.301 390.043 148.856 384.24 168.312C378.779 187.427 373.488 208.248 368.368 230.776C363.589 253.304 359.323 276.344 355.568 299.896C363.419 299.896 372.123 299.213 381.68 297.848C391.237 296.141 399.771 293.752 407.28 290.68C414.789 287.608 419.227 283.853 420.592 279.416C420.933 277.368 421.957 276.344 423.664 276.344C426.395 276.344 427.077 277.539 425.712 279.928C424.005 285.389 420.592 291.363 415.472 297.848C410.693 303.992 405.061 309.283 398.576 313.72C392.091 318.157 385.435 320.717 378.608 321.4C376.56 321.741 374.512 321.912 372.464 321.912C370.416 321.912 368.197 321.912 365.808 321.912C363.76 321.912 361.541 321.912 359.152 321.912C357.104 321.912 354.885 321.741 352.496 321.4C350.789 335.395 349.424 349.219 348.4 362.872C347.376 376.525 346.864 389.837 346.864 402.808C346.864 407.245 346.864 411.683 346.864 416.12C347.205 420.899 347.547 425.677 347.888 430.456ZM76.016 371.064C87.28 371.064 99.3973 366.456 112.368 357.24C125.339 348.024 137.627 336.248 149.232 321.912C160.837 307.235 170.053 292.045 176.88 276.344C172.443 276.003 168.176 275.832 164.08 275.832C160.325 275.832 156.741 275.832 153.328 275.832C149.232 275.832 147.184 275.32 147.184 274.296C147.184 273.272 148.72 272.248 151.792 271.224C155.888 270.541 160.325 270.029 165.104 269.688C169.883 269.347 174.661 269.176 179.44 269.176C179.781 268.493 180.123 267.811 180.464 267.128C180.805 266.104 181.147 265.08 181.488 264.056C183.195 259.619 184.219 255.181 184.56 250.744C185.243 245.965 185.584 241.357 185.584 236.92C185.584 226.339 183.877 216.44 180.464 207.224C177.051 197.667 172.101 189.987 165.616 184.184C159.472 178.04 151.792 174.968 142.576 174.968C138.48 174.968 134.043 175.651 129.264 177.016C124.485 178.381 119.536 180.771 114.416 184.184C106.907 188.963 99.9093 195.448 93.424 203.64C87.28 211.491 81.8187 219.853 77.04 228.728C68.5067 245.453 64.24 259.277 64.24 270.2C64.24 278.733 66.4587 285.389 70.896 290.168C75.3333 294.605 80.9653 296.824 87.792 296.824C93.936 296.824 100.763 294.776 108.272 290.68C115.781 286.584 123.12 280.44 130.288 272.248C134.384 267.469 138.992 260.472 144.112 251.256C149.232 242.04 151.792 233.165 151.792 224.632C151.792 220.877 151.109 217.293 149.744 213.88C148.72 210.125 146.501 207.053 143.088 204.664C139.675 201.933 137.115 200.909 135.408 201.592C133.701 200.909 132.336 200.056 131.312 199.032C130.629 198.008 131.824 197.325 134.896 196.984C139.675 196.984 143.771 198.179 147.184 200.568C151.963 203.64 155.205 207.395 156.912 211.832C158.96 216.269 159.984 221.048 159.984 226.168C159.984 235.725 157.595 245.795 152.816 256.376C148.037 266.616 143.6 274.637 139.504 280.44C130.288 294.093 120.389 304.333 109.808 311.16C99.2267 317.987 89.6693 321.4 81.136 321.4C73.2853 321.4 66.8 318.669 61.68 313.208C56.56 307.405 54 299.043 54 288.12C54 280.269 55.3653 271.224 58.096 260.984C61.168 250.744 65.9467 239.309 72.432 226.68C76.528 219.171 81.8187 211.32 88.304 203.128C95.1307 194.936 102.469 187.427 110.32 180.6C118.512 173.773 126.363 168.995 133.872 166.264C141.723 163.192 149.061 161.656 155.888 161.656C168.176 161.656 178.928 165.752 188.144 173.944C197.701 182.136 205.04 192.717 210.16 205.688C215.621 218.659 218.352 232.483 218.352 247.16C218.352 249.549 218.181 251.939 217.84 254.328C217.84 256.717 217.669 259.107 217.328 261.496L215.792 271.736L222.448 273.272L226.544 274.296C237.467 244.941 246.341 215.757 253.168 186.744C260.336 157.389 263.92 130.424 263.92 105.848C263.92 90.1466 261.872 75.128 257.776 60.792C253.68 46.1146 247.536 33.9973 239.344 24.4399C231.493 14.8826 221.765 10.1039 210.16 10.1039C199.92 10.1039 188.827 14.0293 176.88 21.8799C164.933 29.3893 152.987 39.7999 141.04 53.1119C129.093 66.424 117.659 81.272 106.736 97.6559C93.424 117.795 81.3067 137.933 70.384 158.072C59.4613 178.211 50.2453 200.909 42.736 226.168C35.568 251.085 31.984 273.272 31.984 292.728C31.984 304.675 33.52 316.792 36.592 329.08C39.664 341.027 44.4427 351.096 50.928 359.288C57.4133 367.139 65.776 371.064 76.016 371.064Z" fill="black"/>
<path d="M445.968 410.488C444.603 410.488 442.384 409.805 439.312 408.44C436.581 406.733 433.851 404.856 431.12 402.808C425.659 401.443 421.563 397.859 418.832 392.056C415.76 385.912 413.883 378.744 413.2 370.552C412.517 362.36 412.688 354.168 413.712 345.976C414.736 337.784 416.443 330.957 418.832 325.496C422.587 315.256 427.195 304.333 432.656 292.728C438.459 281.123 445.627 270.029 454.16 259.448C462.693 248.867 472.933 240.163 484.88 233.336C496.827 226.168 510.992 222.243 527.376 221.56C535.909 221.56 543.589 223.608 550.416 227.704C557.584 231.459 561.168 235.896 561.168 241.016C561.168 245.453 558.949 249.891 554.512 254.328C550.416 258.424 544.443 261.325 536.592 263.032C535.227 263.373 533.691 263.715 531.984 264.056C530.619 264.056 529.083 264.056 527.376 264.056C522.597 264.056 520.208 263.544 520.208 262.52C520.208 261.496 521.232 260.984 523.28 260.984C529.083 260.984 534.373 258.936 539.152 254.84C543.931 250.744 546.32 245.624 546.32 239.48C546.32 233.336 544.101 230.435 539.664 230.776C526.011 232.824 513.893 238.797 503.312 248.696C493.072 258.253 484.197 269.688 476.688 283C469.52 296.312 463.547 309.795 458.768 323.448C453.989 337.101 450.235 349.048 447.504 359.288C445.797 366.115 444.261 372.941 442.896 379.768C441.872 386.595 441.531 392.397 441.872 397.176C442.555 401.613 444.261 403.832 446.992 403.832C452.795 403.832 459.621 400.76 467.472 394.616C475.664 388.472 483.856 380.621 492.048 371.064C500.581 361.165 508.603 350.755 516.112 339.832C523.621 328.568 529.765 318.157 534.544 308.6C533.861 304.504 533.349 300.408 533.008 296.312C532.667 292.216 532.325 288.12 531.984 284.024C531.984 282.659 533.349 280.611 536.08 277.88C539.152 274.808 542.565 271.907 546.32 269.176C550.075 266.445 553.317 264.397 556.048 263.032C558.779 261.667 559.973 261.837 559.632 263.544C559.973 272.077 561.339 282.317 563.728 294.264C566.117 305.869 569.36 317.987 573.456 330.616C577.552 342.904 582.331 354.339 587.792 364.92C593.595 375.501 599.909 383.864 606.736 390.008C613.563 396.152 620.219 399.224 626.704 399.224C628.411 399.224 629.947 399.053 631.312 398.712C633.019 398.029 634.555 397.517 635.92 397.176C637.285 396.493 638.651 396.152 640.016 396.152C640.699 396.152 641.04 396.493 641.04 397.176C641.04 399.224 639.675 400.589 636.944 401.272C626.363 406.051 616.123 408.44 606.224 408.44C594.619 408.44 584.549 404.685 576.016 397.176C564.069 386.253 555.024 373.965 548.88 360.312C543.077 346.659 538.811 332.323 536.08 317.304C530.96 327.544 524.816 338.125 517.648 349.048C510.48 359.971 502.8 370.211 494.608 379.768C486.416 388.984 478.053 396.493 469.52 402.296C461.328 407.757 453.477 410.488 445.968 410.488Z" fill="black"/>
<path d="M676.216 394.104C663.928 394.104 654.2 389.667 647.032 380.792C640.205 371.917 635.085 360.995 631.672 348.024C628.259 335.053 626.04 321.912 625.016 308.6C624.333 294.947 623.992 283.512 623.992 274.296C623.992 251.085 625.699 226.339 629.112 200.056C632.525 173.432 637.645 147.491 644.472 122.232C651.64 96.9733 660.515 74.2746 671.096 54.136C682.019 33.656 694.648 18.2959 708.984 8.05594C715.469 3.27727 722.808 0.887939 731 0.887939C736.461 0.887939 741.581 2.42394 746.36 5.49594C751.48 8.22661 755.235 13.0053 757.624 19.8319C761.72 21.88 763.768 26.6586 763.768 34.1679C763.768 40.3119 762.232 47.8213 759.16 56.696C755.064 68.3013 748.579 82.4666 739.704 99.192C730.829 115.917 720.931 133.667 710.008 152.44C699.085 170.872 688.333 188.792 677.752 206.2C667.171 223.267 658.125 237.944 650.616 250.232C650.275 260.131 650.445 271.224 651.128 283.512C652.152 295.8 653.517 307.576 655.224 318.84C657.272 329.763 659.661 338.808 662.392 345.976C664.781 352.12 667.512 356.557 670.584 359.288C673.997 361.677 677.752 362.872 681.848 362.872C687.651 362.872 694.136 360.312 701.304 355.192C708.472 350.072 715.299 344.269 721.784 337.784C730.659 328.909 738.339 319.523 744.824 309.624C751.651 299.384 758.989 289.485 766.84 279.928C767.864 278.563 768.888 277.88 769.912 277.88C771.96 277.88 772.131 279.416 770.424 282.488C762.573 292.387 754.893 303.139 747.384 314.744C739.875 326.008 732.536 337.613 725.368 349.56C722.296 355.363 718.371 361.848 713.592 369.016C708.813 375.843 703.352 381.816 697.208 386.936C691.064 391.715 684.067 394.104 676.216 394.104ZM651.64 237.944C659.832 224.973 668.707 210.296 678.264 193.912C688.163 177.528 697.891 160.632 707.448 143.224C717.005 125.816 725.539 109.091 733.048 93.0479C740.899 77.0053 746.872 62.8399 750.968 50.5519C753.357 43.0426 754.552 36.8986 754.552 32.12C754.552 24.6106 751.821 20.856 746.36 20.856C741.581 20.856 736.973 23.0746 732.536 27.512C718.883 40.1413 707.107 54.9893 697.208 72.0559C687.309 88.7813 678.947 106.872 672.12 126.328C667.341 139.981 663.587 152.611 660.856 164.216C658.125 175.821 656.077 187.427 654.712 199.032C653.688 210.637 652.664 223.608 651.64 237.944Z" fill="black"/>
<path d="M802.216 394.104C789.928 394.104 780.2 389.667 773.032 380.792C766.205 371.917 761.085 360.995 757.672 348.024C754.259 335.053 752.04 321.912 751.016 308.6C750.333 294.947 749.992 283.512 749.992 274.296C749.992 251.085 751.699 226.339 755.112 200.056C758.525 173.432 763.645 147.491 770.472 122.232C777.64 96.9733 786.515 74.2746 797.096 54.136C808.019 33.656 820.648 18.2959 834.984 8.05594C841.469 3.27727 848.808 0.887939 857 0.887939C862.461 0.887939 867.581 2.42394 872.36 5.49594C877.48 8.22661 881.235 13.0053 883.624 19.8319C887.72 21.88 889.768 26.6586 889.768 34.1679C889.768 40.3119 888.232 47.8213 885.16 56.696C881.064 68.3013 874.579 82.4666 865.704 99.192C856.829 115.917 846.931 133.667 836.008 152.44C825.085 170.872 814.333 188.792 803.752 206.2C793.171 223.267 784.125 237.944 776.616 250.232C776.275 260.131 776.445 271.224 777.128 283.512C778.152 295.8 779.517 307.576 781.224 318.84C783.272 329.763 785.661 338.808 788.392 345.976C790.781 352.12 793.512 356.557 796.584 359.288C799.997 361.677 803.752 362.872 807.848 362.872C813.651 362.872 820.136 360.312 827.304 355.192C834.472 350.072 841.299 344.269 847.784 337.784C856.659 328.909 864.339 319.523 870.824 309.624C877.651 299.384 884.989 289.485 892.84 279.928C893.864 278.563 894.888 277.88 895.912 277.88C897.96 277.88 898.131 279.416 896.424 282.488C888.573 292.387 880.893 303.139 873.384 314.744C865.875 326.008 858.536 337.613 851.368 349.56C848.296 355.363 844.371 361.848 839.592 369.016C834.813 375.843 829.352 381.816 823.208 386.936C817.064 391.715 810.067 394.104 802.216 394.104ZM777.64 237.944C785.832 224.973 794.707 210.296 804.264 193.912C814.163 177.528 823.891 160.632 833.448 143.224C843.005 125.816 851.539 109.091 859.048 93.0479C866.899 77.0053 872.872 62.8399 876.968 50.5519C879.357 43.0426 880.552 36.8986 880.552 32.12C880.552 24.6106 877.821 20.856 872.36 20.856C867.581 20.856 862.973 23.0746 858.536 27.512C844.883 40.1413 833.107 54.9893 823.208 72.0559C813.309 88.7813 804.947 106.872 798.12 126.328C793.341 139.981 789.587 152.611 786.856 164.216C784.125 175.821 782.077 187.427 780.712 199.032C779.688 210.637 778.664 223.608 777.64 237.944Z" fill="black"/>
<path d="M902.184 580.472C891.944 580.472 880.851 578.936 868.904 575.864C841.256 568.696 821.288 557.091 809 541.048C796.371 525.347 790.056 509.304 790.056 492.92C790.056 481.315 792.787 470.563 798.248 460.664C803.709 450.765 811.56 442.573 821.8 436.088C831.699 429.944 843.475 426.872 857.128 426.872C862.931 426.872 869.757 427.725 877.608 429.432C890.579 432.163 901.16 437.624 909.352 445.816C917.885 454.008 924.2 463.224 928.296 473.464C932.733 484.045 934.952 494.285 934.952 504.184C934.952 515.789 932.051 525.688 926.248 533.88C920.787 542.413 912.595 546.68 901.672 546.68C892.115 546.68 883.24 543.779 875.048 537.976C866.856 532.515 860.2 525.517 855.08 516.984C849.96 508.792 847.4 500.6 847.4 492.408C847.4 484.557 849.96 478.243 855.08 473.464C860.2 468.685 867.027 466.296 875.56 466.296C881.363 466.296 885.629 466.979 888.36 468.344C891.432 470.051 892.968 471.416 892.968 472.44C892.968 473.123 892.456 473.464 891.432 473.464C891.091 473.464 890.408 473.293 889.384 472.952C888.701 472.952 887.848 472.781 886.824 472.44C885.117 471.416 883.24 470.733 881.192 470.392C879.144 470.051 877.096 469.88 875.048 469.88C868.563 469.88 863.784 471.757 860.712 475.512C857.64 479.267 856.104 483.533 856.104 488.312C856.104 495.139 858.664 501.965 863.784 508.792C868.904 515.96 875.219 521.763 882.728 526.2C890.237 530.979 897.576 533.368 904.744 533.368C913.277 533.368 919.421 530.467 923.176 524.664C927.272 518.861 929.32 511.864 929.32 503.672C929.32 494.456 926.931 484.728 922.152 474.488C917.715 464.589 911.229 456.056 902.696 448.888C894.163 442.061 883.581 438.648 870.952 438.648C860.029 438.648 850.472 441.72 842.28 447.864C833.747 454.349 827.261 462.541 822.824 472.44C818.045 482.68 815.656 493.432 815.656 504.696C815.656 519.032 820.264 532.685 829.48 545.656C838.355 558.627 853.203 567.501 874.024 572.28C876.755 572.621 879.315 572.963 881.704 573.304C884.435 573.987 886.995 574.328 889.384 574.328C905.427 574.328 919.421 568.696 931.368 557.432C943.656 546.168 954.067 531.149 962.6 512.376C971.133 493.603 977.96 472.781 983.08 449.912C988.541 427.384 992.467 404.515 994.856 381.304C997.245 358.093 998.44 336.419 998.44 316.28C998.44 308.429 998.269 300.92 997.928 293.752C997.587 286.243 997.075 279.416 996.392 273.272C989.565 283.512 982.909 295.117 976.424 308.088C969.939 320.717 964.136 333.517 959.016 346.488C953.896 359.117 949.629 370.381 946.216 380.28C942.803 389.837 940.755 396.664 940.072 400.76V403.832H939.56C938.877 405.539 936.147 407.757 931.368 410.488C926.589 412.877 922.152 414.584 918.056 415.608C913.96 416.973 912.253 416.803 912.936 415.096C913.277 412.707 913.448 409.635 913.448 405.88C913.789 401.784 913.96 397.176 913.96 392.056C913.96 382.157 913.448 371.064 912.424 358.776C911.741 346.147 910.205 333.859 907.816 321.912C905.768 309.624 902.696 298.872 898.6 289.656C894.845 280.44 889.896 274.125 883.752 270.712C883.069 270.371 882.387 270.2 881.704 270.2C881.021 269.859 880.339 269.688 879.656 269.688C876.243 269.688 872.659 272.248 868.904 277.368C866.856 279.757 865.32 280.952 864.296 280.952C862.589 280.952 861.736 279.757 861.736 277.368C861.736 274.296 863.101 271.565 865.832 269.176C871.635 265.421 879.144 263.544 888.36 263.544C900.648 263.544 910.376 267.811 917.544 276.344C924.712 284.536 929.832 295.117 932.904 308.088C936.317 320.717 938.365 334.029 939.048 348.024C940.072 362.019 940.584 374.648 940.584 385.912L942.632 378.232C945.363 368.333 947.752 359.117 949.8 350.584C952.189 341.709 954.749 333.347 957.48 325.496C959.528 318.669 962.088 310.477 965.16 300.92C968.232 291.363 971.987 281.805 976.424 272.248C981.203 262.691 986.835 254.84 993.32 248.696C999.805 242.211 1007.31 238.968 1015.85 238.968C1019.26 238.968 1022.67 239.309 1026.09 239.992C1029.5 240.675 1032.91 242.04 1036.33 244.088C1038.03 245.112 1038.55 246.136 1037.86 247.16C1037.52 247.843 1036.5 247.672 1034.79 246.648C1033.09 245.283 1030.87 244.6 1028.14 244.6C1021.99 244.6 1014.82 249.549 1006.63 259.448C1010.05 273.784 1012.78 290.509 1014.82 309.624C1016.87 328.397 1017.9 348.365 1017.9 369.528C1017.9 394.445 1016.02 419.363 1012.26 444.28C1008.51 469.197 1002.19 491.896 993.32 512.376C984.787 532.856 973.011 549.24 957.992 561.528C942.973 574.157 924.371 580.472 902.184 580.472Z" fill="black"/>
<path d="M1093.3 410.488C1092.61 410.488 1091.76 410.488 1090.74 410.488C1090.05 410.147 1089.2 409.805 1088.18 409.464L1085.1 407.928C1075.55 403.149 1067.53 399.053 1061.04 395.64C1054.55 392.227 1050.97 386.595 1050.29 378.744C1049.95 372.941 1050.29 364.749 1051.31 354.168C1052.34 343.245 1053.87 331.299 1055.92 318.328C1057.97 305.357 1060.02 293.069 1062.06 281.464C1059.67 284.195 1057.29 287.267 1054.9 290.68C1052.51 294.093 1048.92 298.872 1044.14 305.016C1043.46 306.04 1042.78 306.211 1042.1 305.528C1041.41 304.504 1041.41 303.48 1042.1 302.456C1046.53 295.629 1051.65 287.949 1057.46 279.416C1063.26 270.541 1068.72 262.008 1073.84 253.816C1078.96 245.283 1082.71 238.797 1085.1 234.36C1086.13 232.312 1088.35 232.995 1091.76 236.408C1095.51 239.821 1098.93 243.917 1102 248.696C1105.41 253.133 1106.95 256.205 1106.61 257.912C1105.24 261.667 1103.02 267.981 1099.95 276.856C1097.22 285.389 1094.49 295.288 1091.76 306.552C1089.03 317.475 1086.64 328.739 1084.59 340.344C1082.54 351.949 1081.52 362.531 1081.52 372.088C1081.52 380.621 1082.54 387.96 1084.59 394.104C1086.98 400.248 1090.39 403.661 1094.83 404.344C1100.98 405.027 1106.95 402.637 1112.75 397.176C1118.9 391.373 1124.53 383.693 1129.65 374.136C1134.77 364.579 1139.38 354.339 1143.47 343.416C1147.57 332.493 1150.98 322.253 1153.71 312.696C1153.03 307.917 1152.35 303.139 1151.66 298.36C1150.98 293.581 1150.47 288.803 1150.13 284.024C1150.13 282.659 1151.49 280.611 1154.22 277.88C1157.3 274.808 1160.71 271.907 1164.46 269.176C1168.22 266.445 1171.46 264.397 1174.19 263.032C1176.92 261.667 1178.12 261.837 1177.78 263.544C1178.12 272.077 1179.48 282.317 1181.87 294.264C1184.26 305.869 1187.5 317.987 1191.6 330.616C1195.7 342.904 1200.47 354.339 1205.94 364.92C1211.74 375.501 1218.05 383.864 1224.88 390.008C1231.71 396.152 1238.36 399.224 1244.85 399.224C1246.55 399.224 1248.09 399.053 1249.46 398.712C1251.16 398.029 1252.7 397.517 1254.06 397.176C1255.43 396.493 1256.79 396.152 1258.16 396.152C1258.84 396.152 1259.18 396.493 1259.18 397.176C1259.18 398.541 1257.82 399.907 1255.09 401.272L1247.41 404.344C1243.65 405.709 1239.73 406.733 1235.63 407.416C1231.88 408.099 1228.12 408.44 1224.37 408.44C1212.08 408.44 1202.01 404.685 1194.16 397.176C1183.24 387.277 1174.7 376.013 1168.56 363.384C1162.76 350.413 1158.49 337.101 1155.76 323.448C1151.66 336.76 1146.54 350.413 1140.4 364.408C1134.6 378.061 1127.77 389.325 1119.92 398.2C1112.07 407.075 1103.19 411.171 1093.3 410.488Z" fill="black"/>
<path d="M1416.1 419.704C1403.13 419.704 1391.18 416.973 1380.26 411.512C1369.34 406.392 1360.97 398.029 1355.17 386.424C1342.88 389.837 1330.25 391.885 1317.28 392.568C1315.58 392.568 1314.72 391.715 1314.72 390.008C1314.72 387.619 1315.75 386.424 1317.8 386.424C1329.4 386.424 1341.01 384.376 1352.61 380.28C1351.25 376.525 1350.05 372.429 1349.03 367.992C1348.35 363.555 1348 358.605 1348 353.144C1348 336.419 1351.59 318.669 1358.76 299.896C1365.92 281.123 1375.31 263.032 1386.92 245.624C1398.86 228.216 1411.32 213.539 1424.29 201.592C1432.48 194.083 1441.19 188.621 1450.4 185.208C1459.62 181.453 1468.32 179.576 1476.52 179.576C1487.78 179.576 1497.34 182.989 1505.19 189.816C1513.04 196.301 1516.96 206.371 1516.96 220.024C1516.96 226.509 1515.77 234.189 1513.38 243.064C1510.99 251.597 1506.89 261.155 1501.09 271.736C1494.95 283.341 1485.39 296.312 1472.42 310.648C1459.45 324.984 1444.09 338.637 1426.34 351.608C1408.59 364.579 1389.13 374.819 1367.97 382.328C1373.09 400.419 1384.19 409.464 1401.25 409.464C1416.27 409.464 1434.19 402.296 1455.01 387.96C1468.67 378.744 1481.64 366.627 1493.92 351.608C1506.55 336.589 1517.82 320.205 1527.72 302.456C1537.61 284.365 1545.29 266.275 1550.76 248.184C1556.56 229.752 1559.46 212.344 1559.46 195.96C1559.46 180.941 1556.05 168.483 1549.22 158.584C1542.73 148.685 1531.47 143.736 1515.43 143.736C1506.55 143.736 1495.97 145.443 1483.68 148.856C1471.4 151.928 1458.77 156.024 1445.8 161.144C1433.17 166.264 1421.22 172.067 1409.96 178.552C1399.03 184.696 1390.16 190.84 1383.33 196.984C1382.31 200.056 1379.41 201.592 1374.63 201.592C1369.51 201.592 1363.71 200.056 1357.22 196.984C1351.08 193.912 1347.49 190.84 1346.47 187.768C1346.47 171.384 1350.91 155 1359.78 138.616C1368.65 121.891 1381.28 106.189 1397.67 91.512C1414.05 76.8346 1433.51 64.2053 1456.04 53.624C1478.56 42.7013 1503.48 35.0213 1530.79 30.584C1532.49 30.2426 1534.2 30.072 1535.91 30.072C1537.96 29.7306 1540.17 29.5599 1542.56 29.5599C1548.37 29.5599 1554.34 30.4133 1560.48 32.12C1566.63 33.4853 1571.75 36.2159 1575.84 40.312C1580.28 44.408 1582.5 50.2106 1582.5 57.7199C1581.82 66.2533 1578.4 75.2986 1572.26 84.856C1566.46 94.072 1559.63 100.045 1551.78 102.776C1551.44 102.776 1551.1 102.947 1550.76 103.288C1550.41 103.288 1549.9 103.288 1549.22 103.288C1547.17 103.288 1546.15 102.605 1546.15 101.24C1546.15 99.5333 1547.17 97.9973 1549.22 96.632C1553.32 92.8773 1557.41 87.928 1561.51 81.784C1565.6 75.2986 1567.65 69.3253 1567.65 63.864C1567.65 58.0613 1564.41 55.6719 1557.92 56.696C1544.95 57.72 1529.93 61.1333 1512.87 66.9359C1496.14 72.3973 1479.08 80.4186 1461.67 91C1444.6 101.24 1428.73 114.211 1414.05 129.912C1399.72 145.613 1388.45 164.216 1380.26 185.72C1390.5 177.187 1403.98 168.995 1420.71 161.144C1437.77 153.293 1455.87 146.808 1474.98 141.688C1494.09 136.568 1512.01 134.008 1528.74 134.008C1554 134.008 1572.26 141.005 1583.52 155C1594.79 168.653 1600.42 187.256 1600.42 210.808C1600.42 228.216 1597.01 246.307 1590.18 265.08C1583.69 283.512 1574.65 301.603 1563.04 319.352C1551.78 336.76 1538.81 352.632 1524.13 366.968C1509.8 381.304 1494.61 393.08 1478.56 402.296C1469.01 407.757 1458.77 412.024 1447.84 415.096C1437.26 418.168 1426.68 419.704 1416.1 419.704ZM1366.44 375.16C1383.84 367.651 1400.23 357.923 1415.59 345.976C1431.29 334.029 1444.77 322.083 1456.04 310.136C1467.64 297.848 1476.17 287.779 1481.64 279.928C1487.1 272.077 1491.02 264.909 1493.41 258.424C1495.8 251.597 1497 245.795 1497 241.016C1497 233.507 1494.61 227.875 1489.83 224.12C1485.39 220.365 1479.76 218.488 1472.93 218.488C1466.79 218.488 1459.96 220.024 1452.45 223.096C1445.28 225.827 1437.95 230.093 1430.44 235.896C1411.66 250.915 1396.13 269.517 1383.84 291.704C1371.56 313.891 1365.41 336.76 1365.41 360.312C1365.41 363.043 1365.41 365.603 1365.41 367.992C1365.75 370.381 1366.09 372.771 1366.44 375.16Z" fill="black"/>
<path d="M1669.3 410.488C1668.61 410.488 1667.76 410.488 1666.74 410.488C1666.05 410.147 1665.2 409.805 1664.18 409.464L1661.1 407.928C1651.55 403.149 1643.53 399.053 1637.04 395.64C1630.55 392.227 1626.97 386.595 1626.29 378.744C1625.95 372.941 1626.29 364.749 1627.31 354.168C1628.34 343.245 1629.87 331.299 1631.92 318.328C1633.97 305.357 1636.02 293.069 1638.06 281.464C1635.67 284.195 1633.29 287.267 1630.9 290.68C1628.51 294.093 1624.92 298.872 1620.14 305.016C1619.46 306.04 1618.78 306.211 1618.1 305.528C1617.41 304.504 1617.41 303.48 1618.1 302.456C1622.53 295.629 1627.65 287.949 1633.46 279.416C1639.26 270.541 1644.72 262.008 1649.84 253.816C1654.96 245.283 1658.71 238.797 1661.1 234.36C1662.13 232.312 1664.35 232.995 1667.76 236.408C1671.51 239.821 1674.93 243.917 1678 248.696C1681.41 253.133 1682.95 256.205 1682.61 257.912C1681.24 261.667 1679.02 267.981 1675.95 276.856C1673.22 285.389 1670.49 295.288 1667.76 306.552C1665.03 317.475 1662.64 328.739 1660.59 340.344C1658.54 351.949 1657.52 362.531 1657.52 372.088C1657.52 380.621 1658.54 387.96 1660.59 394.104C1662.98 400.248 1666.39 403.661 1670.83 404.344C1676.98 405.027 1682.95 402.637 1688.75 397.176C1694.9 391.373 1700.53 383.693 1705.65 374.136C1710.77 364.579 1715.38 354.339 1719.47 343.416C1723.57 332.493 1726.98 322.253 1729.71 312.696C1729.03 307.917 1728.35 303.139 1727.66 298.36C1726.98 293.581 1726.47 288.803 1726.13 284.024C1726.13 282.659 1727.49 280.611 1730.22 277.88C1733.3 274.808 1736.71 271.907 1740.46 269.176C1744.22 266.445 1747.46 264.397 1750.19 263.032C1752.92 261.667 1754.12 261.837 1753.78 263.544C1754.12 272.077 1755.48 282.317 1757.87 294.264C1760.26 305.869 1763.5 317.987 1767.6 330.616C1771.7 342.904 1776.47 354.339 1781.94 364.92C1787.74 375.501 1794.05 383.864 1800.88 390.008C1807.71 396.152 1814.36 399.224 1820.85 399.224C1822.55 399.224 1824.09 399.053 1825.46 398.712C1827.16 398.029 1828.7 397.517 1830.06 397.176C1831.43 396.493 1832.79 396.152 1834.16 396.152C1834.84 396.152 1835.18 396.493 1835.18 397.176C1835.18 398.541 1833.82 399.907 1831.09 401.272L1823.41 404.344C1819.65 405.709 1815.73 406.733 1811.63 407.416C1807.88 408.099 1804.12 408.44 1800.37 408.44C1788.08 408.44 1778.01 404.685 1770.16 397.176C1759.24 387.277 1750.7 376.013 1744.56 363.384C1738.76 350.413 1734.49 337.101 1731.76 323.448C1727.66 336.76 1722.54 350.413 1716.4 364.408C1710.6 378.061 1703.77 389.325 1695.92 398.2C1688.07 407.075 1679.19 411.171 1669.3 410.488Z" fill="black"/>
<path d="M1826.61 416.12C1824.56 416.12 1823.03 415.437 1822 414.072C1818.59 410.317 1816.2 404.856 1814.84 397.688C1813.47 390.179 1812.79 381.987 1812.79 373.112C1812.79 361.848 1813.47 350.243 1814.84 338.296C1816.54 326.008 1818.25 314.915 1819.96 305.016C1822 294.776 1823.37 287.437 1824.05 283C1821.66 285.731 1819.44 288.803 1817.4 292.216C1815.35 295.288 1811.93 299.896 1807.16 306.04C1806.81 306.381 1806.3 306.552 1805.62 306.552C1804.94 306.552 1804.25 306.211 1803.57 305.528C1803.23 304.504 1803.23 303.651 1803.57 302.968C1810.4 293.069 1816.37 283.683 1821.49 274.808C1826.95 265.933 1831.56 258.083 1835.32 251.256C1836.34 249.208 1838.56 249.891 1841.97 253.304C1845.73 256.717 1849.14 260.813 1852.21 265.592C1855.63 270.029 1857.16 273.101 1856.82 274.808C1854.43 280.611 1852.21 288.461 1850.16 298.36C1848.12 308.259 1846.41 318.669 1845.04 329.592C1844.02 340.515 1843.51 350.584 1843.51 359.8C1851.36 341.368 1860.06 323.619 1869.62 306.552C1879.18 289.485 1889.93 273.272 1901.88 257.912C1912.46 244.6 1923.21 237.944 1934.13 237.944C1942.67 237.944 1946.93 242.893 1946.93 252.792C1946.93 256.888 1946.25 261.155 1944.88 265.592C1942.84 270.712 1940.45 278.392 1937.72 288.632C1935.33 298.872 1933.11 310.477 1931.06 323.448C1929.35 336.077 1927.99 348.536 1926.96 360.824C1929.69 355.021 1932.25 349.389 1934.64 343.928C1937.37 338.125 1940.11 332.835 1942.84 328.056C1949.66 315.085 1956.83 302.627 1964.34 290.68C1971.85 278.392 1979.36 267.469 1986.87 257.912C1997.45 244.6 2008.2 237.944 2019.12 237.944C2027.66 237.944 2031.92 242.893 2031.92 252.792C2031.92 256.888 2031.24 261.155 2029.88 265.592C2028.17 270.029 2026.12 276.685 2023.73 285.56C2021.68 294.093 2019.64 303.651 2017.59 314.232C2015.54 324.472 2013.83 334.541 2012.47 344.44C2011.44 354.339 2010.93 363.043 2010.93 370.552C2010.93 378.061 2011.61 383.181 2012.98 385.912C2020.15 373.965 2029.19 358.605 2040.12 339.832C2051.38 320.717 2065.2 301.091 2081.59 280.952C2083.29 278.904 2084.66 278.221 2085.68 278.904C2086.71 279.587 2086.54 280.781 2085.17 282.488C2081.08 288.291 2077.15 293.923 2073.4 299.384C2069.64 304.504 2065.89 309.965 2062.13 315.768C2040.97 349.56 2026.46 378.061 2018.61 401.272C2017.59 402.296 2014 401.784 2007.86 399.736C2002.06 397.688 1996.43 394.957 1990.96 391.544C1985.5 388.131 1982.43 385.4 1981.75 383.352C1982.09 362.872 1983.63 342.904 1986.36 323.448C1989.43 303.992 1992.67 287.096 1996.08 272.76C1997.11 269.347 1996.25 267.64 1993.52 267.64C1991.82 267.64 1989.43 268.664 1986.36 270.712C1983.63 272.419 1980.72 275.491 1977.65 279.928C1972.53 286.755 1966.73 295.8 1960.24 307.064C1954.1 317.987 1948.3 329.763 1942.84 342.392C1937.72 355.021 1934.13 367.139 1932.08 378.744C1931.06 386.595 1928.67 389.155 1924.92 386.424C1919.8 384.376 1914.16 381.645 1908.02 378.232C1901.88 374.477 1898.46 371.405 1897.78 369.016C1898.12 348.536 1899.49 330.957 1901.88 316.28C1904.61 301.603 1907.68 287.096 1911.09 272.76C1912.12 269.347 1911.26 267.64 1908.53 267.64C1906.83 267.64 1904.44 268.664 1901.36 270.712C1898.63 272.419 1895.73 275.491 1892.66 279.928C1886.86 287.779 1880.2 298.36 1872.69 311.672C1865.52 324.643 1859.21 338.467 1853.75 353.144C1848.63 367.48 1846.07 380.792 1846.07 393.08C1846.07 400.931 1846.58 406.221 1847.6 408.952C1844.53 409.976 1840.95 411.341 1836.85 413.048C1832.76 415.096 1829.34 416.12 1826.61 416.12Z" fill="black"/>
</svg>
